<?xml version="1.0" encoding="UTF-8" standalone="no"?>
<!-- Created with Inkscape (http://www.inkscape.org/) -->

<svg
   xmlns:dc="http://purl.org/dc/elements/1.1/"
   xmlns:cc="http://creativecommons.org/ns#"
   xmlns:rdf="http://www.w3.org/1999/02/22-rdf-syntax-ns#"
   xmlns:svg="http://www.w3.org/2000/svg"
   xmlns="http://www.w3.org/2000/svg"
   xmlns:sodipodi="http://sodipodi.sourceforge.net/DTD/sodipodi-0.dtd"
   xmlns:inkscape="http://www.inkscape.org/namespaces/inkscape"
   width="320"
   height="100"
   id="svg2"
   version="1.1"
   inkscape:version="0.48.1 r9760"
   sodipodi:docname="challengesinsustainability.svg"
   inkscape:export-filename="/Users/jose/Documents/Antiophidic/challengesinsustainability.png"
   inkscape:export-xdpi="300"
   inkscape:export-ydpi="300">
  <defs
     id="defs4" />
  <sodipodi:namedview
     id="base"
     pagecolor="#ffffff"
     bordercolor="#666666"
     borderopacity="1.0"
     inkscape:pageopacity="0"
     inkscape:pageshadow="2"
     inkscape:zoom="1.55"
     inkscape:cx="1.0321531"
     inkscape:cy="-11.461528"
     inkscape:document-units="px"
     inkscape:current-layer="layer1"
     showgrid="false"
     inkscape:window-width="1280"
     inkscape:window-height="752"
     inkscape:window-x="0"
     inkscape:window-y="0"
     inkscape:window-maximized="0"
     fit-margin-top="0"
     fit-margin-left="0"
     fit-margin-right="0"
     fit-margin-bottom="0" />
  <metadata
     id="metadata7">
    <rdf:RDF>
      <cc:Work
         rdf:about="">
        <dc:format>image/svg+xml</dc:format>
        <dc:type
           rdf:resource="http://purl.org/dc/dcmitype/StillImage" />
        <dc:title></dc:title>
      </cc:Work>
    </rdf:RDF>
  </metadata>
  <g
     inkscape:label="Layer 1"
     inkscape:groupmode="layer"
     id="layer1"
     transform="translate(2652.6655,-1177.9987)">
    <g
       id="layer1-7"
       inkscape:label="Layer 1"
       transform="matrix(0.10031284,0,0,0.10031284,-2642.4475,1175.216)">
      <g
         transform="translate(1.1503986e-6,23.384893)"
         id="g3850">
        <rect
           style="fill:#005500;fill-opacity:1;stroke:#005500;stroke-width:2.85805607;stroke-linecap:round;stroke-linejoin:miter;stroke-miterlimit:4;stroke-opacity:1;stroke-dasharray:none;stroke-dashoffset:0"
           id="rect3807"
           width="297.14194"
           height="47.141945"
           x="223.61583"
           y="743.92993"
           rx="25" />
        <rect
           rx="25"
           y="813.06354"
           x="223.61583"
           height="47.141945"
           width="297.14194"
           id="rect3809"
           style="fill:#005500;fill-opacity:1;stroke:#005500;stroke-width:2.85805607;stroke-linecap:round;stroke-linejoin:miter;stroke-miterlimit:4;stroke-opacity:1;stroke-dasharray:none;stroke-dashoffset:0" />
        <rect
           style="fill:#005500;fill-opacity:1;stroke:#005500;stroke-width:2.85805607;stroke-linecap:round;stroke-linejoin:miter;stroke-miterlimit:4;stroke-opacity:1;stroke-dasharray:none;stroke-dashoffset:0"
           id="rect3811"
           width="297.14194"
           height="47.141945"
           x="223.61583"
           y="882.19714"
           rx="25" />
        <path
           style="fill:#005500;fill-opacity:1;stroke:#005500;stroke-width:3;stroke-linecap:round;stroke-linejoin:miter;stroke-miterlimit:4;stroke-opacity:1;stroke-dasharray:none;stroke-dashoffset:0"
           d="m 302.02218,999.7369 -29.14251,-48.33517 c 66.11172,0 132.22345,0 198.33517,0 l -29.14251,48.33517 c -46.68338,0 -93.36677,0 -140.05015,0 z"
           id="rect3815"
           inkscape:connector-curvature="0"
           sodipodi:nodetypes="ccccc" />
        <path
           id="path3824"
           transform="matrix(2.0763169,0,0,3.4818235,-560.9817,-739.14082)"
           style="fill:#005500;fill-opacity:1;stroke:#005500;stroke-width:1px;stroke-linecap:butt;stroke-linejoin:miter;stroke-opacity:1"
           d="m 377.80246,383.3901 c -29.25281,-13.02091 -48.19318,-33.82494 -48.19318,-57.26698 0,-9.93674 3.40318,-19.39948 9.55438,-27.9716 16.55569,-26.56829 44.47709,-44.95674 30.92178,-69.7406 l 0.003,-0.0126 c -0.87738,-1.24501 -1.36225,-2.61262 -1.36225,-4.04777 0,-5.7746 7.85009,-10.42028 17.5499,-10.42795 37.48521,-0.0214 52.25743,26.89568 118.75681,48.95854 38.11637,11.95411 64.09244,35.78905 64.09244,63.24194 0,23.46134 -18.97156,44.28032 -48.26545,57.29912 m 0.0123,0.009 0,28.65409 c 0,3.9778 -5.30077,7.55693 -11.97123,7.55695 l -51.09992,1.3e-4 c 0.44427,-24.5091 -0.0784,-47.37625 -1.99975,-67.53336 25.25948,-2.60203 49.83525,-7.62446 71.56605,-22.82613 -20.66436,7.44962 -46.46429,14.16036 -72.18327,16.89368 -1.33021,-11.79909 -3.18267,-22.83327 -5.66519,-33.11274 17.94877,-5.99684 41.89113,-17.82205 45.72286,-33.60428 -11.49789,13.25263 -30.62681,20.99109 -47.62803,26.34584 -9.12979,-32.41717 -25.26412,-56.80282 -51.98525,-73.56315 23.56556,25.81904 36.61732,49.83999 43.51817,79.68446 -25.7611,-2.25196 -49.54612,-7.7543 -69.98878,-18.73781 6.98719,12.32407 43.7595,22.85845 71.39836,25.32278 1.91702,9.79851 3.24167,20.24552 4.11418,31.58644 -25.20059,0.39984 -54.82187,-2.93357 -89.24212,-15.64551 18.15506,15.4742 61.26632,20.61238 89.65914,21.45093 1.13143,18.39689 1.20427,39.69743 0.7672,63.73885 l -56.02107,0 c -6.67046,0 -12.05625,-3.06235 -12.05625,-7.04015 l 0,-29.21136"
           inkscape:connector-curvature="0"
           sodipodi:nodetypes="cscccsccsccsscccccccccccccccssc" />
      </g>
    </g>
    <text
       xml:space="preserve"
       style="font-size:28.72370148px;font-style:normal;font-variant:normal;font-weight:normal;font-stretch:normal;line-height:100%;letter-spacing:0px;word-spacing:0px;fill:#005500;fill-opacity:1;stroke:none;font-family:Courier;-inkscape-font-specification:Courier"
       x="-2556.5569"
       y="1221.4489"
       id="text3883"
       sodipodi:linespacing="100%"><tspan
         sodipodi:role="line"
         id="tspan3885"
         x="-2556.5569"
         y="1221.4489"
         style="font-style:normal;font-variant:normal;font-weight:bold;font-stretch:normal;line-height:100%;fill:#005500;fill-opacity:1;font-family:Sans;-inkscape-font-specification:Helvetica">Challenges in</tspan><tspan
         sodipodi:role="line"
         x="-2556.5569"
         y="1250.1726"
         id="tspan3887"
         style="font-style:normal;font-variant:normal;font-weight:bold;font-stretch:normal;line-height:100%;fill:#005500;fill-opacity:1;font-family:Sans;-inkscape-font-specification:Helvetica">Sustainability</tspan></text>
  </g>
</svg>
